<?xml version="1.0" encoding="UTF-8"?>
<svg width="180px" height="494px" viewBox="0 0 180 494" version="1.1" xmlns="http://www.w3.org/2000/svg" xmlns:xlink="http://www.w3.org/1999/xlink">
    <!-- Generator: Sketch 50.2 (55047) - http://www.bohemiancoding.com/sketch -->
    <title>Woman 2</title>
    <desc>Created with Sketch.</desc>
    <defs>
        <path d="M4.43024283,33.0448343 C4.43024283,39.2295443 7.77425153,69.2706475 5.84917169,76.1491824 C3.92409185,83.0277173 0.847376356,142.348801 0.44454084,146.477629 C0.041705324,150.606456 1.04168525,157.51627 5.48235441,159.301068 C9.92302357,161.085866 18.1901562,161.853623 23.2905278,161.853623 C28.3908993,161.853623 32.3756535,163.156915 32.3756535,160.604359 C32.3756535,158.051804 13.5693959,153.47654 13.5693959,141.704265 C13.5693959,129.931989 29.3851922,84.1765094 30.9548289,74.1444833 C32.0012534,67.4564659 33.5013813,44.1700455 35.4552125,4.28522204 C17.310869,-0.771232545 7.44218869,-0.771232545 5.84917169,4.28522204 C3.4596462,11.8699039 4.43024283,26.8601244 4.43024283,33.0448343 Z" id="path-1"></path>
        <path d="M15.1248149,160.162662 C15.1248149,155.177928 18.4565016,147.826417 18.4565016,145.791386 C18.4565016,143.756356 18.4565016,140.229413 18.4565016,133.666511 C18.4565016,127.10361 0.634110495,81.6144755 0.634110495,50.3222127 C0.634110495,39.1906825 2.21227787,32.5671188 2.21227787,24.9502101 C2.21227787,19.8722709 1.68622208,13.7504349 0.634110495,6.58470195 L32.6486338,0.374400068 L31.397474,11.7447879 C31.516271,20.7531379 30.8022253,27.8316688 29.2553369,32.9803807 C26.9350044,40.7034484 27.1131998,121.479078 29.2553369,127.10361 C31.397474,132.728142 36.2589878,146.251093 36.2589878,151.629184 C36.2589878,152.264417 40.660114,160.162662 37.4845556,160.162662 C33.8836801,160.162662 24.0841401,162.846968 21.6630723,162.846968 C19.2420045,162.846968 15.1248149,165.147396 15.1248149,160.162662 Z" id="path-3"></path>
        <path d="M21.0645061,99.6875725 L6.38517989,70.7127986 C11.0773448,62.8178544 12.5172843,56.5716923 10.7049984,51.9743122 C7.98656955,45.0782421 7.89984143,44.4630886 7.14251066,43.104822 C6.38517989,41.7465554 3.54684824,44.2090652 2.74544252,38.6665224 C1.94403681,33.1239797 -1.16253591,29.4183668 1.54309699,26.4293273 C4.24872988,23.4402878 5.72974281,17.2906482 7.14251066,14.612029 C8.55527851,11.9334098 15.2897405,0.416579316 22.8384041,0.416579316 C30.3870678,0.416579316 41.7759387,3.50514291 45.1313216,8.42068406 C48.4867045,13.3362252 50.3733965,15.6105871 50.3733965,22.1976587 C50.3733965,28.7847303 50.3733965,29.4629157 50.3733965,31.4695105 C50.3733965,33.4761053 49.3193892,41.4209695 47.2478668,43.104822 C45.1763444,44.7886744 42.5067297,55.6661812 39.0158045,58.8703823 C38.3200839,60.0877354 38.3200839,62.4115435 39.0158045,65.8418064 C43.2473152,74.9142941 44.5741448,81.5820907 42.9962934,85.8451963 C40.6295162,92.2398547 34.2026906,107.142399 29.8752297,106.229147 C26.9902558,105.620313 24.0533479,103.439788 21.0645061,99.6875725 Z" id="path-5"></path>
        <path d="M0.394304882,241.191367 C12.3548863,247.323314 20.9392321,250.389287 26.1473425,250.389287 C33.9595079,250.389287 58.1429088,245.790327 76.9463228,245.790327 C95.7497368,245.790327 110.947536,250.389287 116.934146,250.389287 C122.920755,250.389287 128.581305,245.790327 134.116739,245.790327 C137.807028,245.790327 140.184232,244.25734 141.24835,241.191367 C132.006197,192.564223 127.385121,164.538245 127.385121,157.113434 C127.385121,149.688623 121.482554,132.906021 109.677419,106.765629 C105.795033,95.7655343 104.824436,88.9713579 106.765629,86.3831002 C109.677419,82.5007137 112.693946,70.3488249 114.559312,65.0299743 C116.424677,59.7111237 116.934146,56.6562087 116.934146,50.8345246 C116.934146,45.0128406 115.990089,43.6768484 120.355878,43.6768484 C124.721667,43.6768484 136.106273,45.3820275 136.106273,45.3820275 C136.106273,45.3820275 134.760802,32.2467461 133.355143,28.7330725 C131.949484,25.219399 130.615862,15.8091613 125.099859,11.9760629 C119.583856,8.14296451 92.937471,0.426531723 91.0247132,0.426531723 C89.1119554,0.426531723 82.7045011,3.45917227 81.1358122,5.33638578 C81.9334265,8.96285327 79.8154595,26.8203147 76.9463228,26.8203147 C74.0771861,26.8203147 64.7096016,12.0850655 64.7096016,8.45859799 C64.7096016,4.8321305 51.9122281,-1.14120932 51.9122281,0.426531723 C51.9122281,1.99427277 27.5316749,11.4718076 19.4896562,14.9068098 C11.4476375,18.3418119 9.16616672,59.3680026 12.6305522,57.0201825 C16.0949376,54.6723623 33.5628334,48.058751 35.1675405,49.4985325 C36.7722477,50.938314 37.9812281,61.1352658 38.0788565,65.0299743 C38.1764849,68.9246829 37.6873952,99.9942014 34.2201662,105.28983 C30.7529372,110.585458 9.90691015,147.429268 5.15060751,182.081653 C1.97973909,205.183243 0.394304882,224.886481 0.394304882,241.191367 Z" id="path-7"></path>
        <path d="M-4.41376536e-13,117.562569 C-4.41376536e-13,120.353982 13.8253149,121.851583 26.9852403,123.322643 C40.1451658,124.793704 57.1903212,117.562569 68.1085855,117.562569 C79.0268498,117.562569 80.8543012,117.562569 90.8019688,118.958276 C100.749636,120.353982 112.397744,121.749689 118.463973,120.353982 C124.530202,118.958276 132.507293,118.655438 132.507293,115.864025 C136.238972,115.864025 121.999447,58.6064066 120.542604,49.8710369 C119.085761,41.1356672 110.035706,16.4044101 106.370377,14.1077737 C105.231063,12.1924883 103.399504,7.51264541 100.8757,0.0682450756 L28.4818928,3.88238653 C27.6452587,6.47001231 25.6901636,10.513849 22.6166076,16.0138966 C18.0062736,24.2639679 6.87000428,42.5451176 3.38950542,63.126695 C-0.0909934342,83.7082724 3.7947076e-19,110.181675 -4.41376536e-13,117.562569 Z" id="path-9"></path>
        <path d="M1.03296505,7.92832706 C1.60701956,4.92661847 9.00816042,3.9255638 12.7426826,3.9255638 C15.2323641,3.9255638 18.4237692,5.25981822 22.316898,7.92832706 C20.9482051,19.0965073 21.4467733,24.6805974 23.8126026,24.6805974 C32.3043753,27.4928633 69.9619132,34.2548128 76.5608329,34.2548128 C83.1597526,34.2548128 97.0452559,17.2437799 97.0452559,14.575587 C97.0452559,11.9073941 105.058365,0.689135875 106.553596,0.689135875 C107.985795,0.689135875 106.273507,3.9255638 109.27629,3.9255638 C112.279073,3.9255638 115.059586,2.31611744 117.089877,3.9255638 C119.120168,5.53501017 116.597944,13.9675423 112.518879,15.3694099 C108.439814,16.7712775 108.701894,17.3594174 107.269695,17.3594174 C106.314896,17.3594174 104.586969,19.7998107 102.085913,24.6805974 C97.1356174,40.9412505 83.6843866,49.6703012 61.7322206,50.8677495 C28.8039716,52.663922 24.1926897,47.8066735 20.8856471,47.8066735 C17.5786045,47.8066735 8.60437705,49.996677 6.29921005,40.7058682 C3.99404305,31.4150594 -1.80002106,22.7419007 1.03296505,7.92832706 Z" id="path-11"></path>
        <path d="M1.1525835,6.87332175 C2.13976748,3.49756013 6.39987154,0.507098826 12.6433481,0.507098826 C18.8868247,0.507098826 24.5772318,2.23692192 24.5772318,2.23692192 C24.5772318,2.23692192 26.818893,20.2749485 26.818893,21.1166377 C26.818893,21.958327 17.8849509,16.4221739 11.5869712,18.6555497 C5.2889915,20.8889255 4.35991759,20.8824439 4.35991759,22.7824058 C4.35991759,24.6823676 3.68958954,29.0969194 4.35991759,32.7114537 C3.37273362,30.9053289 -0.826523694,15.1906903 1.1525835,6.87332175 Z" id="path-13"></path>
        <path d="M81.6685029,102.883243 C81.6685029,102.883243 85.4125036,100.451064 85.4125036,100.451064 C85.4125036,100.451064 67.8829976,75.0601047 32.8239857,24.2781857 L38.8049083,4.90795836 L5.75533471,27.2695948 L28.7785693,27.2695948 C64.038525,77.6786936 81.6685029,102.883243 81.6685029,102.883243 Z" id="path-15"></path>
        <path d="M96.8176485,5.87581119 C96.8176485,2.84885773 110.510739,-0.446810712 113.164714,0.429001092 C115.818689,1.3048129 119.176086,3.0304382 119.176086,4.09392396 C119.176086,5.15740972 121.291209,34.1786281 116.836678,36.9003069 C112.382147,39.6219857 106.473379,39.2500228 103.531732,39.2500228 C100.590085,39.2500228 82.7104669,42.3561891 61.9633719,36.9003069 C41.2162768,31.4444248 40.8491037,31.3113196 38.4373038,31.3113196 C36.0255039,31.3113196 32.2820953,31.0667747 30.778334,28.8748756 C29.2745727,26.6829765 25.0144686,23.9812025 23.1979174,23.9812025 C21.3813662,23.9812025 14.9335102,27.4734819 13.0581924,28.8748756 C11.1828746,30.2762693 6.85073402,33.2496693 5.96733943,33.2496693 C5.08394484,33.2496693 0.160820914,28.6772492 1.05843323,26.2540751 C1.95604554,23.830901 0.160820914,23.4683491 1.05843323,21.1646038 C1.95604554,18.8608586 5.8095227,10.9254729 6.8777477,10.9254729 C7.9459727,10.9254729 18.9860355,9.45772982 21.0139568,9.45772982 C23.0418782,9.45772982 34.9283695,18.5504792 37.0387537,19.5499443 C39.1491378,20.5494094 60.4838988,21.1646038 64.9880738,21.1646038 C69.4922488,21.1646038 97.0370754,16.9248785 98.8807585,16.3026836 C100.724441,15.6804888 96.8176485,12.2060159 96.8176485,5.87581119 Z" id="path-16"></path>
        <path d="M1.99285099,5.27382779 C4.61112387,2.36519739 7.2009613,0.91088219 9.76236329,0.91088219 C13.6044663,0.91088219 20.5882123,0.91088219 22.0739645,3.09235499 C23.5597167,5.27382779 24.045015,10.5343857 24.045015,13.8471154 C24.045015,17.1598451 26.5103683,21.6152059 26.5103683,22.5052355 C26.5103683,23.395265 22.1933934,16.2522804 14.2516097,19.8237727 C6.30982595,23.395265 5.14823789,26.1544513 3.21462742,27.6747999 C1.92555377,28.6883657 0.925573838,28.6883657 0.214687634,27.6747999 C2.21464749,19.3008764 3.21462742,14.068438 3.21462742,11.9774847 C3.21462742,9.88653141 2.80736861,7.65197911 1.99285099,5.27382779 Z" id="path-18"></path>
        <path d="M2.53198152,14.575587 C2.53198152,11.9073941 10.5450908,0.689135875 12.0403215,0.689135875 C13.4725202,0.689135875 11.7602323,3.9255638 14.7630156,3.9255638 C17.765799,3.9255638 20.5463119,2.31611744 22.5766029,3.9255638 C24.6068939,5.53501017 22.0846696,13.9675423 18.0056046,15.3694099 C13.9265395,16.7712775 14.1886196,17.3594174 12.7564208,17.3594174 C11.8016217,17.3594174 7.62350649,17.9527704 0.222075275,19.1394764 C1.76201277,17.8756787 2.53198152,16.3543823 2.53198152,14.575587 Z" id="path-20"></path>
    </defs>
    <g id="Home" stroke="none" stroke-width="1" fill="none" fill-rule="evenodd">
        <g transform="translate(-598.000000, -293.000000)" id="Group-41">
            <g transform="translate(-159.000000, 128.000000)">
                <g id="illustration" transform="translate(627.000000, 0.000000)">
                    <g id="Woman-2" transform="translate(129.217993, 164.923875)">
                        <g id="Group-19" transform="translate(105.795033, 317.579789)">
                            <mask id="mask-2" fill="white">
                                <use xlink:href="#path-1"></use>
                            </mask>
                            <use id="Path-39" fill="#F4B1A1" xlink:href="#path-1"></use>
                            <path d="M13.9665443,11.338161 C23.7849886,10.263933 28.6942108,11.1896648 28.6942108,14.1153565 C28.6942108,18.503894 27.9255058,65.1020108 26.3956787,72.3179797 C24.8658516,79.5339486 10.9049944,131.734797 10.9049944,138.151729 C10.9049944,144.568662 13.9665443,154.697369 28.6942108,159.537082 C38.5126551,162.763558 46.2619466,137.600714 51.9420854,84.0485499 L46.4132864,14.1153565 L28.6942108,-3.67480775 L13.9665443,11.338161 Z" id="Path-62" fill="#EB9C89" mask="url(#mask-2)"></path>
                        </g>
                        <g id="Group-20" transform="translate(75.706537, 324.373965)">
                            <mask id="mask-4" fill="white">
                                <use xlink:href="#path-3"></use>
                            </mask>
                            <use id="Path-38" fill="#F4B1A1" xlink:href="#path-3"></use>
                            <path d="M4.22076836,10.026339 C16.8050339,8.84152869 23.5060053,10.6256951 24.3236824,15.3788382 C25.550198,22.5085529 22.1663797,46.2203993 22.1663797,62.6006392 C22.1663797,78.9808791 22.3493144,125.423075 27.3634318,132.504449 C32.3775492,139.585824 32.3775492,149.274729 32.3775492,151.370421 C32.3775492,153.466114 34.840059,155.901136 20.0294558,159.464098 C10.1557203,161.839406 15.092588,163.061182 34.840059,163.129427 L41.3764207,151.370421 C35.377173,125.578206 32.3775492,112.682098 32.3775492,112.682098 C32.3775492,112.682098 33.1983858,83.2311887 34.840059,24.3293695 L34.840059,-2.92126838 L-1.3175091,0.434114509 L4.22076836,10.026339 Z" id="Path-63" fill="#EB9C89" mask="url(#mask-4)"></path>
                        </g>
                        <path d="M93.7968156,473.475001 C92.9328207,475.419973 88.8071399,485.318839 91.0153092,489.519939 C93.2234785,493.72104 105.462384,493.521755 108.197366,493.521755 C110.932348,493.521755 115.849807,491.942166 115.849807,487.986795 C115.849807,484.031424 114.232439,475.369092 112.3731,473.475001 C111.612277,473.163633 114.235344,481.929807 109.374594,481.929807 C104.513844,481.929807 96.6827123,484.901075 93.7968156,483.136655 C90.9109188,481.372236 94.3757691,472.171696 93.7968156,473.475001 Z" id="Path-40" fill="#13287E"></path>
                        <path d="M113.71004,477.101231 C114.496754,480.467988 115.33868,482.984052 117.644558,483.992562 C119.950436,485.001073 127.10906,488.0176 132.747572,487.365717 C138.386085,486.713835 143.568445,486.505545 144.735246,484.50677 C145.902048,482.507995 138.581815,476.510248 135.879263,475.701022 C133.176711,474.891797 138.462624,477.648614 135.879263,478.175143 C133.295903,478.701673 123.513635,479.172043 120.87601,478.175143 C118.238385,477.178244 114.279223,476.588445 113.71004,477.101231 Z" id="Path-41" fill="#13287E"></path>
                        <g id="Group-34" transform="translate(87.353697, 14.753640)">
                            <mask id="mask-6" fill="white">
                                <use xlink:href="#path-5"></use>
                            </mask>
                            <use id="Path-49" fill="#F4B1A1" xlink:href="#path-5"></use>
                            <path d="M6.61195259,31.0313676 C6.12783908,31.3894173 3.98901946,27.7624759 3.41391252,27.7624759 C2.83880558,27.7624759 1.65636486,29.3077056 1.65636486,29.9759386 C1.65636486,30.6441716 3.81722196,37.126269 3.81722196,39.8762138 C3.81722196,42.6261586 6.96739569,40.5176701 7.7057695,42.998663 C8.1980187,44.6526582 8.42273773,46.0234048 8.37992658,47.1109027 C2.81795292,45.1456973 0.0369660826,43.5327755 0.0369660826,42.2721373 C0.0369660826,40.38118 -3.51841279,27.9250319 -3.51841279,26.774818 C-3.51841279,26.0080088 -2.3332865,23.4067972 0.0369660826,18.9711832 C4.74303276,26.7726064 6.93469493,30.7926679 6.61195259,31.0313676 Z" id="Path-106" fill="#EB9C89" mask="url(#mask-6)"></path>
                        </g>
                        <circle id="Oval-3" fill="#13287E" cx="122.823289" cy="43.5835194" r="1.45589495"></circle>
                        <circle id="Oval-3-Copy" fill="#13287E" cx="107.293743" cy="43.5835194" r="1.45589495"></circle>
                        <path d="M118.871297,35.8674732 C120.572159,36.8763931 124.308991,36.0989002 127.19645,35.8674732 C130.083909,35.6360461 125.083283,34.3705838 123.610602,34.3705838 C122.137922,34.3705838 117.170434,34.8585533 118.871297,35.8674732 Z" id="Path-98" fill="#13287E" transform="translate(123.299751, 35.371229) rotate(18.000000) translate(-123.299751, -35.371229) "></path>
                        <path d="M102.279804,35.8674732 C103.980666,36.8763931 107.717498,36.0989002 110.604957,35.8674732 C113.492416,35.6360461 108.49179,34.3705838 107.019109,34.3705838 C105.546429,34.3705838 100.578941,34.8585533 102.279804,35.8674732 Z" id="Path-98-Copy" fill="#13287E" transform="translate(106.708258, 35.371229) scale(-1, 1) rotate(21.000000) translate(-106.708258, -35.371229) "></path>
                        <ellipse id="Oval-4" fill="#EB9C89" transform="translate(126.824627, 51.636312) rotate(29.000000) translate(-126.824627, -51.636312) " cx="126.824627" cy="51.6363117" rx="2.58825768" ry="1.94119326"></ellipse>
                        <ellipse id="Oval-4-Copy" fill="#EB9C89" transform="translate(102.559711, 49.695118) rotate(-12.000000) translate(-102.559711, -49.695118) " cx="102.559711" cy="49.6951185" rx="2.58825768" ry="1.94119326"></ellipse>
                        <path d="M115.671849,68.486974 C117.816032,68.486974 120.189768,65.2043385 120.189768,63.8745074 C120.189768,62.5446762 116.431462,63.8745074 114.287279,63.8745074 C112.143097,63.8745074 108.706823,62.8024159 108.706823,63.8745074 C108.706823,64.9465988 113.527666,68.486974 115.671849,68.486974 Z" id="Oval-4-Copy-2" fill="#EB9C89"></path>
                        <path d="M98.2387864,66.8952472 C106.383647,74.5345883 111.202349,78.3542588 112.694894,78.3542588 C114.933712,78.3542588 116.222312,78.3542588 117.214235,78.3542588 C118.206158,78.3542588 126.815938,73.5330286 126.815938,72.624753 C126.815938,71.7164774 125.02877,77.104047 126.815938,82.4295325 C128.603106,87.755018 125.02877,107.658884 124.36575,108.600571 C123.70273,109.542258 113.963115,119.561015 114.945086,115.503276 C115.927057,111.445538 121.707984,97.2448749 115.821846,89.429392 C109.935708,81.6139091 106.240995,77.366127 103.599816,74.155291 C101.83903,72.0147337 100.05202,69.594719 98.2387864,66.8952472 Z" id="Path-51" fill="#EB9C89"></path>
                        <g id="Group-17" transform="translate(38.823865, 85.607194)">
                            <mask id="mask-8" fill="white">
                                <use xlink:href="#path-7"></use>
                            </mask>
                            <g id="Path-42">
                                <use fill="#4743CE" xlink:href="#path-7"></use>
                                <use fill="#247FFB" xlink:href="#path-7"></use>
                            </g>
                            <path d="M108.140009,26.9416393 C109.228978,26.9416393 113.375923,43.2124028 114.751251,43.2124028 C116.76922,44.1659381 117.625127,41.2873229 121.586659,40.6328337 C123.246231,40.3586539 128.403631,41.2185103 137.05886,43.2124028 C124.882169,61.1292627 117.4463,72.6361407 114.751251,77.7330369 C112.056203,82.829933 116.984066,105.022221 129.534841,144.3099 L150.709771,224.454262 C146.407804,242.582177 144.25682,251.646134 144.25682,251.646134 C144.25682,251.646134 135.769155,251.646134 118.793824,251.646134 C126.872019,246.295214 132.960364,243.619754 137.05886,243.619754 C143.206604,243.619754 133.603005,227.932866 132.22673,224.454262 C130.850454,220.975659 100.149649,219.788953 92.0645027,219.788953 C83.979357,219.788953 68.9825016,229.119572 58.9789109,224.454262 C48.9753203,219.788953 38.9622511,224.454262 30.8448785,224.454262 C25.4332968,224.454262 18.634855,222.899159 10.4495533,219.788953 C6.44679003,220.339969 4.4454084,218.958638 4.4454084,215.644961 C4.4454084,210.674444 6.64109892,176.921567 10.4495533,173.236333 C12.9885229,170.77951 14.7734791,161.137366 15.8044221,144.3099 L22.3862805,110.392097 L35.1253613,84.5177348 C35.1253613,71.5423238 35.1253613,64.163641 35.1253613,62.3816862 C35.1253613,59.7087541 10.4495533,64.1252531 10.4495533,58.3073604 C10.4495533,56.1306652 12.2308463,50.1096702 15.8044221,46.0422038 C18.2135188,43.3001548 32.3007734,46.9578252 34.1083201,45.0720811 C35.9158668,43.1863369 30.8448785,34.1414948 30.8448785,34.1414948 C30.8448785,34.1414948 33.1945944,36.0689443 35.8011771,40.6328337 C37.5388989,43.6754266 39.0589316,47.9058315 40.3612752,53.3240481 C41.1934859,62.5396609 45.2082553,68.286781 52.4055832,70.5654082 C63.201575,73.9833491 68.0071657,64.8849535 83.148094,70.5654082 C93.2420463,74.352378 101.271585,74.352378 107.23671,70.5654082 C113.462493,64.6186082 115.079997,56.4442067 112.089219,46.0422038 C107.603053,30.4391994 107.17973,26.9416393 108.140009,26.9416393 Z" id="Path-58" fill="#0A56DF" mask="url(#mask-8)"></path>
                            <path d="M92.0019448,-1.60091573 L80.5045452,4.68805756 C77.1070045,18.5816255 76.035778,25.9840046 77.2908656,26.8951947 C78.8536627,28.0297811 83.4367138,11.9239313 83.4367138,9.3836979 C83.4367138,6.84346453 94.3767786,3.20040969 99.5581912,4.68805756 C104.739604,6.17570542 116.35738,6.41456319 128.239606,15.8219573 C125.97567,12.6367132 134.650852,23.1240827 134.817673,23.2758361 C136.751357,25.0348637 137.135235,18.8389375 135.969309,4.68805756 L92.0019448,-1.60091573 Z" id="Path-59" fill="#0A56DF" mask="url(#mask-8)"></path>
                        </g>
                        <g id="Group-21" transform="translate(44.647445, 182.666857)">
                            <mask id="mask-10" fill="white">
                                <use xlink:href="#path-9"></use>
                            </mask>
                            <use id="Path-44" fill="#FFFFFF" xlink:href="#path-9"></use>
                            <path d="M16.3911402,25.3502021 C18.5118902,27.798089 24.7227265,12.6092256 30.3330404,12.6092256 C35.9433544,12.6092256 51.2093986,23.3881561 69.417564,21.7919796 C87.6257293,20.1958032 89.1745134,17.047999 98.6330913,17.047999 C105.707831,18.4944155 121.003258,54.3607835 121.003258,63.990922 C121.003258,70.4110143 124.420567,87.3921022 131.255185,114.934186 C119.186549,119.785273 109.030039,121.759325 100.785655,120.856342 C88.4190783,119.501867 106.807335,134.954637 108.860374,134.954637 C110.913414,134.954637 148.02736,137.845574 148.02736,134.954637 C148.02736,132.0637 156.310607,47.6843509 156.310607,47.6843509 C156.310607,47.6843509 144.54149,34.7670747 121.003258,8.93252212 L100.785655,-8.25765415 L16.3911402,1.54783623 C14.0628685,14.7286602 14.0628685,22.6627821 16.3911402,25.3502021 Z" id="Path-64" fill="#EFEFEF" mask="url(#mask-10)"></path>
                        </g>
                        <g id="Group-42" transform="translate(54.159292, 142.495575)">
                            <mask id="mask-12" fill="white">
                                <use xlink:href="#path-11"></use>
                            </mask>
                            <use id="Path-53" fill="#E9A291" xlink:href="#path-11"></use>
                            <path d="M9.45902768,45.5659239 C14.1550834,48.1520861 16.911323,45.8896155 20.5834141,45.8896155 C24.2555051,45.8896155 24.2555051,46.8145412 29.6915014,48.1520861 C43.3601788,50.7382483 76.6326138,47.970601 87.9697267,43.2416187 C95.5278019,40.0889639 95.9757243,40.7116305 89.3134939,45.1096186 C66.4114613,53.7035414 54.4938555,58.0005029 53.5606766,58.0005029 C52.1609082,58.0005029 16.8140989,51.097095 14.1550834,50.450218 C11.4960679,49.8033409 2.01606584,43.2416187 3.69324712,43.2416187 C5.37042839,43.2416187 4.74766104,44.9307941 9.45902768,45.5659239 Z" id="Path-113" fill="#D18675" mask="url(#mask-12)"></path>
                        </g>
                        <g id="Group-23" transform="translate(50.471025, 131.225236)">
                            <mask id="mask-14" fill="white">
                                <use xlink:href="#path-13"></use>
                            </mask>
                            <use id="Path-45" fill="#FFFFFF" xlink:href="#path-13"></use>
                            <path d="M13.6504369,13.2433361 C10.8681863,8.85385072 9.47706096,6.23510391 9.47706096,5.38709566 C9.47706096,4.11508328 9.98487067,2.18763381 11.600715,2.18763381 C15.1068058,1.63954055 18.0607749,0.340751454 21.1716129,3.5402133 C24.282451,6.73967514 26.4771937,20.8668797 26.4771937,22.1663797 C26.4771937,23.4658797 29.7411092,20.9161678 29.7411092,20.9161678 C29.7411092,20.9161678 28.4828406,6.13873934 28.4828406,5.38709566 C28.4828406,4.88599987 26.0457647,1.5479942 21.1716129,-4.62692134 C10.4912586,-4.0762215 5.15108144,-3.80087157 5.15108144,-3.80087157 C5.15108144,-3.80087157 4.58268842,-1.35384328 3.4459024,3.5402133 L13.6504369,13.2433361 Z" id="Path-66" fill="#EFEFEF" mask="url(#mask-14)"></path>
                        </g>
                        <g id="Group-16" transform="translate(0.000000, 74.930631)">
                            <g id="Path-54">
                                <use fill="#4743CE" xlink:href="#path-15"></use>
                                <use fill="#247FFB" xlink:href="#path-15"></use>
                            </g>
                            <polygon id="Path-55" fill="#13287E" transform="translate(20.293385, 13.791168) rotate(-1.000000) translate(-20.293385, -13.791168) " points="1.13336276 24.8634021 5.8827497 27.195014 39.3570478 5.9076975 39.4534063 0.387322217"></polygon>
                            <polygon id="Path-56" fill="#13287E" points="85.4797416 100.46546 61.6540942 66.0016965 57.5426838 68.4400954 81.7128148 103.08395"></polygon>
                        </g>
                        <g id="Group-25" transform="translate(58.407080, 143.557522)">
                            <mask id="mask-17" fill="white">
                                <use xlink:href="#path-16"></use>
                            </mask>
                            <use id="Path-52" fill="#F4B1A1" xlink:href="#path-16"></use>
                            <path d="M114.946704,2.15858499 C116.638145,5.9500673 117.483865,8.78970363 117.483865,10.677494 C117.483865,13.5091796 118.325697,33.0369727 114.946704,35.6306536 C111.567711,38.2243344 72.9769861,35.9433264 42.5637186,29.9252816 C26.2451,25.9917224 29.3147903,23.1035172 24.540696,21.8491962 C19.7666017,20.5948751 11.2953973,28.0855416 8.31852367,32.1466588 C6.33394125,34.8540703 7.32623246,35.4056121 11.2953973,33.8012841 L54.5209919,39.7659204 L112.836292,48.1987537 L124.814306,34.8217487 C124.814306,16.0243898 124.814306,6.38908831 124.814306,5.9158444 C124.814306,5.44260048 122.370826,2.57790192 117.483865,-2.67825129 L114.946704,2.15858499 Z" id="Path-111" fill="#DD9383" mask="url(#mask-17)"></path>
                        </g>
                        <g id="Group-22" transform="translate(152.383671, 126.372252)">
                            <mask id="mask-19" fill="white">
                                <use xlink:href="#path-18"></use>
                            </mask>
                            <use id="Path-46" fill="#FFFFFF" xlink:href="#path-18"></use>
                            <path d="M4.0281182,26.7762398 C0.577002636,26.7762398 4.66696793,18.2325724 4.81009302,16.3273974 C4.95321811,14.4222224 4.81009302,8.93038947 4.81009302,6.70294602 C4.81009302,4.47550258 8.31879037,3.30111857 14.7731632,2.15066773 C19.0760784,1.3837005 21.9930815,2.69583846 23.5241724,6.08708161 L21.7689943,-9.87965951 L-1.07485994,2.15066773 L-1.07485994,17.2328294 C-4.85171936,27.5321488 -5.25929412,31.5232219 -2.29758421,29.2060488 C2.14498064,25.7302892 7.47923376,26.7762398 4.0281182,26.7762398 Z" id="Path-65" fill="#EFEFEF" mask="url(#mask-19)"></path>
                        </g>
                        <g id="Group-43" transform="translate(148.672566, 142.495575)">
                            <mask id="mask-21" fill="white">
                                <use xlink:href="#path-20"></use>
                            </mask>
                            <use id="Path-53" fill="#E9A291" xlink:href="#path-20"></use>
                            <path d="M21.6724541,3.74865344 C21.7929256,8.59205775 20.6099023,11.9672479 18.123384,13.8742238 C14.3936066,16.7346877 5.92655049,17.8811548 4.57474601,18.3688311 C3.22294153,18.8565074 11.5528468,17.8811548 14.3936066,17.8811548 C17.2343664,17.8811548 22.39995,16.6073889 22.9773317,12.9297237 C23.5547135,9.25205845 25.2331911,3.90576765 23.5500468,3.12460408 C22.4279505,2.60382836 21.8020863,2.81184481 21.6724541,3.74865344 Z" id="Path-114" fill="#D18675" mask="url(#mask-21)"></path>
                        </g>
                        <path d="M118.470608,84.0977455 C117.63271,85.0429871 118.823681,91.47864 120.161569,91.47864 C121.499457,91.47864 129.981751,87.8780013 130.388378,86.7739951 C130.795005,85.6699888 128.221834,78.9201243 127.100766,78.9201243 C125.970694,79.3281729 128.945279,81.0231626 118.470608,84.0977455 Z" id="Path-47" fill="#FFFFFF"></path>
                        <path d="M103.502188,93.0108367 C104.137483,93.546371 107.048799,87.5192408 107.048799,86.3472264 C107.048799,85.175212 94.3881528,82.9252571 93.8080696,81.5470858 C93.2279865,80.1689144 96.6276813,78.8606468 96.6276813,78.8606468 C96.6276813,78.8606468 92.4033585,79.0689364 91.756926,80.7947312 C91.1104935,82.5205259 89.913835,87.0720933 90.4498432,87.7194737 C90.9858514,88.3668541 96.6276813,90.7720191 103.502188,93.0108367 Z" id="Path-48" fill="#FFFFFF"></path>
                        <path d="M89.8114674,40.071141 C91.3284986,38.5759104 92.731314,44.362998 94.3601913,46.5193528 C95.5004527,44.362998 92.0360673,42.4165916 94.3601913,39.4521961 C96.6843152,36.4878006 97.4340632,36.6380346 96.6539841,35.336165 C95.873905,34.0342954 95.6577956,32.1272247 97.2023143,29.4623492 C98.7468331,26.7974738 103.179446,23.1929253 107.515259,23.1929253 C111.851072,23.1929253 107.845703,18.8592445 107.845703,18.1469366 C107.845703,17.4346286 114.219281,22.2089403 114.209294,22.2089403 C114.199308,22.2089403 125.242984,23.4529912 129.981277,27.3913008 C134.719571,31.3296103 137.20009,37.0584053 135.642775,40.9474268 C134.08546,44.8364482 137.112474,48.3478249 137.501031,49.6951185 C137.719807,50.4537068 137.438473,47.5719383 138.653141,44.8364482 C139.867809,42.1009581 139.965437,38.5515033 139.965437,36.8989298 C139.965437,35.2463564 141.116362,24.5072354 132.590704,18.4602004 C124.065045,12.4131654 118.913025,9.19450962 114.219281,10.4859529 C109.525536,11.7773962 114.373771,6.35309746 101.389908,13.9688214 C88.4060454,21.5845453 87.8707481,40.071141 89.8114674,40.071141 Z" id="Path-50" fill="#13287E"></path>
                        <path d="M95.3307879,20.6568388 C98.9635744,19.3962006 98.9635744,17.6723805 95.3307879,15.4853786 C89.8816082,12.2048757 103.681234,-1.06689579 107.596892,0.947281794 C111.512551,2.96145937 107.53623,4.97563695 121.581446,2.96145937 C135.626662,0.947281794 128.287472,9.49687322 128.287472,15.4853786 C128.287472,21.473884 124.177364,16.8720806 115.215458,15.4853786 C106.253553,14.0986766 97.62932,23.491853 97.62932,22.0966203 C97.62932,21.1664652 96.8631426,20.686538 95.3307879,20.6568388 Z" id="Path-57" fill="#13287E"></path>
                        <path d="M101.994337,12.1622106 C100.241061,11.4876702 90.7865686,10.3273759 90.9555205,10.7459745 C90.7214236,10.8442983 96.8308953,12.1148578 101.026267,12.5688131 C105.221638,13.0227685 119.782327,18.1537844 119.782327,20.4103023 C119.782327,22.6668202 116.829272,25.6113476 119.782327,28.1002098 C121.75103,29.7594512 122.071585,28.208595 120.743992,23.4476411 C125.508541,26.2284069 127.497796,26.5148386 126.711756,24.3069363 C125.925716,22.0990339 123.936461,20.4047514 120.743992,19.2240887 C109.413072,14.9658635 103.163188,12.6119042 101.994337,12.1622106 Z" id="Path-33" stroke="#247FFB" fill="#247FFB" transform="translate(108.913858, 19.700301) scale(-1, 1) rotate(-14.000000) translate(-108.913858, -19.700301) "></path>
                        <path d="M115.07897,38.3711752 C115.762196,36.7700225 116.796315,44.7836496 117.475604,47.3387677 C118.059716,49.53588 120.315121,50.7574194 119.385992,52.896239 C116.876564,53.8869775 114.325904,53.8869775 113.606961,53.4066553 C113.606961,50.0695185 114.374245,48.3029663 115.07897,38.3711752 Z" id="Path-105" fill="#EB9C89"></path>
                    </g>
                </g>
            </g>
        </g>
    </g>
</svg>